<svg width="81" height="97" viewBox="0 0 81 97" fill="none" xmlns="http://www.w3.org/2000/svg">
<path d="M14.002 53.4362C14.7363 53.4362 15.3316 52.7225 15.3316 51.8421C15.3316 50.9617 14.7363 50.248 14.002 50.248C13.2676 50.248 12.6724 50.9617 12.6724 51.8421C12.6724 52.7225 13.2676 53.4362 14.002 53.4362Z" fill="#90E051"/>
<path d="M19.3162 48.6572C20.0505 48.6572 20.6458 47.9435 20.6458 47.0631C20.6458 46.1827 20.0505 45.469 19.3162 45.469C18.5819 45.469 17.9866 46.1827 17.9866 47.0631C17.9866 47.9435 18.5819 48.6572 19.3162 48.6572Z" fill="#90E051"/>
<path d="M32.6021 47.0644C33.3364 47.0644 33.9317 46.3507 33.9317 45.4703C33.9317 44.5899 33.3364 43.8762 32.6021 43.8762C31.8677 43.8762 31.2725 44.5899 31.2725 45.4703C31.2725 46.3507 31.8677 47.0644 32.6021 47.0644Z" fill="#90E051"/>
<path d="M10.0171 61.4003C10.7514 61.4003 11.3467 60.6866 11.3467 59.8062C11.3467 58.9258 10.7514 58.2121 10.0171 58.2121C9.28278 58.2121 8.6875 58.9258 8.6875 59.8062C8.6875 60.6866 9.28278 61.4003 10.0171 61.4003Z" fill="#90E051"/>
<path d="M16.6594 59.8074C17.3937 59.8074 17.989 59.0937 17.989 58.2133C17.989 57.333 17.3937 56.6193 16.6594 56.6193C15.9251 56.6193 15.3298 57.333 15.3298 58.2133C15.3298 59.0937 15.9251 59.8074 16.6594 59.8074Z" fill="#90E051"/>
<path d="M21.9734 55.0287C22.7077 55.0287 23.303 54.315 23.303 53.4346C23.303 52.5542 22.7077 51.8405 21.9734 51.8405C21.2391 51.8405 20.6438 52.5542 20.6438 53.4346C20.6438 54.315 21.2391 55.0287 21.9734 55.0287Z" fill="#90E051"/>
<path d="M76.4442 18.3904H57.8441V12.0189C57.8441 11.1392 58.439 10.426 59.1727 10.426H69.8013C72.0026 10.426 73.7871 8.28658 73.7871 5.64743C73.7871 3.00829 72.0026 0.868835 69.8013 0.868835H57.8441C53.4434 0.874104 49.8771 5.14992 49.8727 10.426V18.3904H31.2726C29.0713 18.3904 27.2869 20.5298 27.2869 23.169V24.7618C27.2925 26.8146 28.3935 28.6325 30.0198 29.2744L30.5153 37.5956C29.8856 37.5509 29.2572 37.5048 28.6154 37.5048C26.6912 37.5097 24.7713 37.7261 22.88 38.1515L19.6569 33.1339C22.7431 29.4703 22.9145 25.1521 21.3269 22.6831C19.7392 20.2142 16.2012 19.3158 12.4719 21.9536L11.6097 20.6044C11.3249 20.1372 10.8512 19.892 10.3723 19.9637C9.89335 20.0354 9.48455 20.4129 9.30441 20.9498C9.12428 21.4866 9.20114 22.0984 9.5052 22.5477L10.3714 23.8985C7.27452 27.5621 7.12306 31.8899 8.70141 34.3493C10.3077 36.8485 13.8589 37.6943 17.5564 35.0788L20.0461 38.9543C10.3369 42.2834 3.37249 51.076 3.37249 61.3978C3.36934 62.0989 3.40306 62.7995 3.47346 63.4956C3.63337 65.2891 4.62201 66.8219 6.02964 67.4586V70.9549C3.35685 70.951 1.0992 73.3321 0.761789 76.5109C0.424373 79.6898 2.11263 82.673 4.70106 83.4717V86.8836C4.70157 89.2724 5.45245 91.5734 6.8042 93.3283H2.04391C1.31016 93.3283 0.715332 94.0415 0.715332 94.9212C0.715332 95.8009 1.31016 96.5141 2.04391 96.5141H79.1014C79.8351 96.5141 80.4299 95.8009 80.4299 94.9212C80.4299 94.0415 79.8351 93.3283 79.1014 93.3283H72.1356C73.3543 91.747 74.0901 89.7172 74.2228 87.5701L77.6971 29.2712C79.3227 28.6301 80.4236 26.8135 80.4299 24.7618V23.169C80.4299 20.5298 78.6455 18.3904 76.4442 18.3904ZM10.8019 32.4076C9.73903 30.7478 10.7142 28.1291 12.0082 26.4535L12.7443 27.5987C13.029 28.0659 13.5027 28.3112 13.9817 28.2395C14.4606 28.1677 14.8694 27.7902 15.0495 27.2534C15.2297 26.7166 15.1528 26.1048 14.8487 25.6554L14.1127 24.5102C15.719 23.4859 18.1303 22.9316 19.2224 24.6312C20.543 26.686 18.7813 30.0645 17.0396 31.6733C15.2978 33.2821 12.1238 34.4624 10.8019 32.4076ZM52.5298 10.426C52.5298 6.90717 54.9091 4.05457 57.8441 4.05457H69.8013C70.5351 4.05457 71.1299 4.76772 71.1299 5.64743C71.1299 6.52715 70.5351 7.2403 69.8013 7.2403H59.1727C56.9715 7.2403 55.187 9.37975 55.187 12.0189V18.3904H52.5298V10.426ZM74.5417 37.5048H33.1738L32.6995 29.5404H75.0173L74.5417 37.5048ZM72.0732 78.9193H56.3269C56.4465 78.4002 56.51 77.8649 56.5156 77.3264C56.5156 73.8075 54.1363 70.9549 51.2013 70.9549V67.4506C52.6042 66.8214 53.5919 65.2983 53.7548 63.5131C53.8265 62.8113 53.8611 62.1048 53.8584 61.3978C53.8584 60.7956 53.8093 60.2047 53.7628 59.6137C56.3832 58.8679 58.1221 55.8867 57.8071 52.6798C57.4921 49.4728 55.2231 47.0575 52.5298 47.062C51.4867 47.069 50.469 47.4489 49.607 48.1531C47.2818 44.9502 44.3957 42.4021 41.1546 40.6905H74.353L72.0732 78.9193ZM51.2013 74.1407C52.6688 74.1407 53.8584 75.567 53.8584 77.3264C53.8584 79.0858 52.6688 80.5121 51.2013 80.5121H26.5083L31.8226 74.1407H51.2013ZM52.5298 86.8836V83.4717C53.3253 83.2228 54.0614 82.7549 54.6795 82.105H71.8832L71.5723 87.3408C71.3598 90.6685 69.051 93.2424 66.2673 93.2551H50.4838C51.8003 91.5082 52.5293 89.2379 52.5298 86.8836ZM51.1654 50.7255C51.5747 50.4185 52.047 50.2531 52.5298 50.2477C53.8423 50.2407 54.9601 51.3897 55.1549 52.9459C55.3496 54.502 54.5621 55.9937 53.3057 56.4487C52.84 54.4212 52.1182 52.4912 51.1654 50.7255ZM21.7839 41.6637L24.9061 46.5236C25.3553 47.2151 26.1862 47.3414 26.7653 46.8063C27.3443 46.2711 27.4539 45.2756 27.0105 44.5787L24.724 41.0202C26.0137 40.8071 27.3137 40.6969 28.6154 40.6905C41.0695 40.6905 51.2013 49.9801 51.2013 61.3978C51.2029 61.9833 51.1745 62.5685 51.1162 63.1499C51.0477 63.9669 50.4725 64.5876 49.7877 64.5835H7.43793C6.74804 64.582 6.17244 63.9513 6.10935 63.1276C6.05339 62.5535 6.02677 61.9758 6.02964 61.3978C6.02964 52.1591 12.6606 44.3254 21.7839 41.6637ZM8.68679 67.7692H48.5441V70.9549H31.2726C30.9203 70.955 30.5824 71.1229 30.3333 71.4217L20.7078 82.9604L12.3377 71.4917C12.0858 71.1506 11.724 70.9552 11.3439 70.9549H8.68679V67.7692ZM3.37249 77.3264C3.37249 75.567 4.56213 74.1407 6.02964 74.1407H10.7408L15.3908 80.5121H6.02964C4.56213 80.5121 3.37249 79.0858 3.37249 77.3264ZM12.6725 93.2551C9.73751 93.2551 7.35822 90.4025 7.35822 86.8836V83.6979H17.7211L18.7149 85.0598C19.2001 85.722 19.8919 86.1146 20.6267 86.1445H20.7131C21.418 86.1437 22.094 85.8081 22.593 85.2111L23.8512 83.6979H49.8727V86.8836C49.8727 90.4025 47.4934 93.2551 44.5584 93.2551H12.6725ZM77.7728 24.7618C77.7728 25.6415 77.178 26.3547 76.4442 26.3547H31.2726C30.5388 26.3547 29.944 25.6415 29.944 24.7618V23.169C29.944 22.2892 30.5388 21.5761 31.2726 21.5761H76.4442C77.178 21.5761 77.7728 22.2892 77.7728 23.169V24.7618Z" fill="#90E051"/>
<path d="M65.8158 43.8762C62.8808 43.8762 60.5015 46.7288 60.5015 50.2477C60.5015 53.7666 62.8808 56.6192 65.8158 56.6192C68.7508 56.6192 71.1301 53.7666 71.1301 50.2477C71.1301 46.7288 68.7508 43.8762 65.8158 43.8762ZM65.8158 53.4334C64.3483 53.4334 63.1586 52.0071 63.1586 50.2477C63.1586 48.4883 64.3483 47.062 65.8158 47.062C67.2833 47.062 68.4729 48.4883 68.4729 50.2477C68.4729 52.0071 67.2833 53.4334 65.8158 53.4334Z" fill="#90E051"/>
<path d="M61.8297 64.5834C59.6285 64.5834 57.844 66.7228 57.844 69.362C57.844 72.0011 59.6285 74.1406 61.8297 74.1406C64.031 74.1406 65.8155 72.0011 65.8155 69.362C65.8155 66.7228 64.031 64.5834 61.8297 64.5834ZM61.8297 70.9548C61.096 70.9548 60.5011 70.2417 60.5011 69.362C60.5011 68.4823 61.096 67.7691 61.8297 67.7691C62.5635 67.7691 63.1583 68.4823 63.1583 69.362C63.1583 70.2417 62.5635 70.9548 61.8297 70.9548Z" fill="#90E051"/>
</svg>
